<svg xmlns="http://www.w3.org/2000/svg" viewBox="0 0 150 150"><defs><style>.a{fill:#2c6bed;}</style></defs><title>Artboard 1 copy 5</title><path class="a" d="M94.1,68.4,62.5,59.1a8.6,8.6,0,0,1,2.4-16.9H84.3a17.7,17.7,0,0,1,10,3.1,4.5,4.5,0,0,0,5.7-.6l10.2-10a4.8,4.8,0,0,0-.5-7.2,42,42,0,0,0-25.3-8.8V4.7A4.7,4.7,0,0,0,79.7,0H70.3a4.7,4.7,0,0,0-4.7,4.7v14h-.7A32.1,32.1,0,0,0,33,53.8c1.2,13.5,11.5,24.5,24.5,28.3l30,8.8a8.6,8.6,0,0,1-2.4,16.9H65.7a17.7,17.7,0,0,1-10-3.1,4.7,4.7,0,0,0-5.8.6l-10.1,10a4.8,4.8,0,0,0,.5,7.2,41.2,41.2,0,0,0,25.3,8.7v14.1a4.7,4.7,0,0,0,4.7,4.7h9.4a4.7,4.7,0,0,0,4.7-4.7V131.2c13.6-.3,26.4-8.4,30.9-21.3A32.1,32.1,0,0,0,94.1,68.4Z"/></svg>