<?xml version="1.0" encoding="utf-8"?>
<!-- Generator: Adobe Illustrator 23.0.3, SVG Export Plug-In . SVG Version: 6.00 Build 0)  -->
<svg version="1.1" id="Layer_1" xmlns="http://www.w3.org/2000/svg" xmlns:xlink="http://www.w3.org/1999/xlink" x="0px" y="0px"
	 viewBox="0 0 576 512" style="enable-background:new 0 0 576 512;" xml:space="preserve">
<style type="text/css">
	.st0{fill:#2C6BED;}
</style>
<path class="st0" d="M286.7,392l32.6,46.5c-10.4,1-20.8,1.5-31.3,1.5C168.2,440,63,376.1,6.6,280.4c-8.9-15-8.9-33.7,0-48.7
	c24-40.8,56.9-75.8,96-102.5l57.1,81.5c-5,14.2-7.7,29.5-7.7,45.4C152,330.7,212.1,391.3,286.7,392z M569.4,280.4
	c-31.7,53.7-78.7,97.5-135.2,125.5l0,0l41.5,59.2c7.6,10.9,5,25.8-5.9,33.4l-13.1,9.2c-10.9,7.6-25.8,5-33.4-5.9L100.3,46.9
	c-7.6-10.9-5-25.8,5.9-33.4l13.1-9.2c10.9-7.6,25.8-5,33.4,5.9l51,72.6C230.7,75.8,258.9,72,288,72c119.8,0,225,63.9,281.4,159.6
	C578.2,246.7,578.2,265.3,569.4,280.4L569.4,280.4z M424,256c0-75.2-60.8-136-136-136c-17.9,0-35.1,3.5-50.7,9.8l19.3,27.1
	c25.9-8.2,55-6.2,80.4,7.4h0c-23.6,0-42.8,19.2-42.8,42.8c0,23.6,19.1,42.8,42.8,42.8c23.6,0,42.8-19.2,42.8-42.8v0
	c18.5,34.5,16.3,77.9-8.2,110.9v0l19.3,27.1C411.5,321.2,424,290.1,424,256z M262,356.7L184.5,246
	C179.5,298.4,213.8,344.3,262,356.7z"/>
</svg>
